<?xml version="1.0" encoding="utf-8"?>
<!-- Svg Vector Icons : http://www.onlinewebfonts.com/icon -->
<!DOCTYPE svg PUBLIC "-//W3C//DTD SVG 1.1//EN" "http://www.w3.org/Graphics/SVG/1.1/DTD/svg11.dtd">
<svg version="1.1" xmlns="http://www.w3.org/2000/svg" xmlns:xlink="http://www.w3.org/1999/xlink" x="0px" y="0px" viewBox="0 0 1000 1000" enable-background="new 0 0 1000 1000" xml:space="preserve">
<metadata> Svg Vector Icons : http://www.onlinewebfonts.com/icon </metadata>
<g><path d="M500,10C229.4,10,10,229.4,10,500c0,270.6,219.4,490,490,490c270.6,0,490-219.4,490-490C990,229.4,770.6,10,500,10z M576.8,680.3c-37,55.5-74.6,98.3-137.9,98.3c-43.2-7-60.9-38-51.6-69.5l81.4-269.6c1.9-6.6-1.4-13.7-7.4-15.8c-6-2.1-17.8,5.7-28,16.8l-49.2,59.2c-1.3-9.9-0.1-26.4-0.1-33c37-55.5,97.7-99.3,138.9-99.3c39.2,4,57.7,35.3,50.9,69.7l-82,271c-1.1,6.2,2.1,12.3,7.7,14.3c6,2.1,18.7-5.7,28.9-16.8l49.2-59.2C579,656.2,576.8,673.6,576.8,680.3z M565.9,328.1c-31.1,0-56.4-22.6-56.4-56.1c0-33.4,25.2-56.1,56.4-56.1c31.1,0,56.4,22.7,56.4,56.1C622.2,305.4,597,328.1,565.9,328.1z"/></g>
</svg>