<svg width="131" height="131" viewBox="0 0 131 131" fill="none" xmlns="http://www.w3.org/2000/svg">
<g clip-path="url(#clip0_413_13)">
<path d="M126.167 65.5L128.333 67.6667C128.908 67.092 129.231 66.3127 129.231 65.5C129.231 64.6873 128.908 63.908 128.333 63.3333L126.167 65.5ZM108.833 48.1667L111 46C110.572 45.5702 110.025 45.2772 109.43 45.1582C108.835 45.0392 108.218 45.0995 107.658 45.3316C107.097 45.5637 106.618 45.957 106.281 46.4618C105.944 46.9665 105.765 47.5599 105.765 48.1667L108.833 48.1667ZM108.833 82.8333L105.765 82.8333C105.765 83.4401 105.944 84.0335 106.281 84.5382C106.618 85.043 107.097 85.4363 107.658 85.6684C108.218 85.9005 108.835 85.9608 109.43 85.8418C110.025 85.7228 110.572 85.4298 111 85L108.833 82.8333ZM108.833 62.432H4.83349V68.568H108.833V62.432ZM128.333 63.3333L111 46L106.667 50.3334L124 67.6667L128.333 63.3333ZM105.765 48.1667V82.8333L111.901 82.8333V48.1667L105.765 48.1667ZM111 85L128.333 67.6667L124 63.3333L106.667 80.6666L111 85Z" fill="black"/>
</g>
<defs>
<clipPath id="clip0_413_13">
<rect width="91.9238" height="91.9238" fill="white" transform="translate(130.5 65.5) rotate(135)"/>
</clipPath>
</defs>
</svg>
