<svg xmlns="http://www.w3.org/2000/svg" viewBox="0 0 352.25 304.98"><g id="Layer_2" data-name="Layer 2"><g id="Layer_1-2" data-name="Layer 1"><path d="M352.25,35.34a34.14,34.14,0,0,1-10.32,24.71q-42.18,42.35-84.54,84.55a89.72,89.72,0,0,1-54.81,26.16c-3.6.39-7.27,1-11,.39-6.56-1.09-10.68-5.76-10.57-12.43.37-21.38,7.12-40.48,20.72-57.06,1.89-2.31,3.92-4.53,6-6.64q42.24-42.3,84.55-84.55c14.44-14.4,37-13.85,50.89,1.08A34.83,34.83,0,0,1,352.25,35.34Z"/><path d="M282.76,170.06a125,125,0,0,1-76.22,36.42l-1.24.15a86.24,86.24,0,0,1-10.3.72,57.36,57.36,0,0,1-9.18-.73c-24.39-4-41.11-24-40.7-48.5.51-29.86,10.22-56.53,28.86-79.26,2.52-3.07,5.32-6.16,8.34-9.19l.05-.06,24.12-24.13C155.61,44.7,84.4,42.94,49.75,42.94c-14.21,0-26.15,5-36,15.15C4.48,67.65.15,79.3.13,92.36q-.22,97.37,0,194.77c0,7.31,2.79,13.11,9.68,16.29s12.81,1.26,18.16-3.49c8.3-7.37,16.65-14.68,24.8-22.2A20.69,20.69,0,0,1,67.59,272q85.7.11,171.39,0c24,0,43.34-15.44,48.63-38.74a57.06,57.06,0,0,0,1.27-12.63c0-6.47,0-33,0-56.68C286.86,166,284.81,168,282.76,170.06ZM48.49,107.62h1l24.23,0c7.94,0,15.88,0,23.83,0,9.54.07,16.91,6.43,17.51,15,.71,10-5,17.06-15.07,18.6a25.29,25.29,0,0,1-3.68.33c-15.06,0-30.12.12-45.19,0-11.36-.1-18.71-6.84-18.79-16.85A16.62,16.62,0,0,1,48.49,107.62Zm52.72,99.17c-9.15,1.37-18.35.18-25.57.54-9.61,0-17.28.15-24.91,0-11.26-.26-18.39-7.11-18.32-17.31a16.33,16.33,0,0,1,16-16.53q25.45-.35,50.94,0a16.34,16.34,0,0,1,15.84,15.41C115.59,198.18,110.09,205.44,101.21,206.79Z"/></g></g></svg>