<svg xmlns="http://www.w3.org/2000/svg" viewBox="0 0 507.39 451.22"><g id="Layer_2" data-name="Layer 2"><g id="Layer_1-2" data-name="Layer 1"><path d="M0,140.48c2.76-15.07,7.42-29.42,16.29-42.11,20-28.62,47.49-43.94,82.46-44.21,55.11-.42,110.22-.13,165.34-.09,10,0,17.61,5.41,20.4,14.18a20.32,20.32,0,0,1-7.33,22.48C272.27,94.39,266.56,95,260.7,95q-80.43,0-160.88,0c-17.12,0-31.5,6-43.38,18.25-11.15,11.51-16.36,25.55-16.39,41.27Q39.78,271.79,40,389.11c0,8.8,3.36,15.79,11.65,19.62s15.43,1.51,21.87-4.21c10-8.88,20.06-17.68,29.87-26.74a24.93,24.93,0,0,1,17.91-6.91q103.22.13,206.42,0c28.91,0,52.2-18.59,58.57-46.66A69.36,69.36,0,0,0,387.83,309c0-13.7-.05-27.4,0-41.09.06-11.74,8.8-20.67,20.09-20.7s20.12,8.89,20.17,20.61c.08,15.85.11,31.69,0,47.53-.35,45.56-36.94,87.79-82,94.72A150.61,150.61,0,0,1,323,411.88q-95,0-190.09-.09c-4.41,0-7.87,1-11.12,4.09-7.1,6.65-14.48,13-21.73,19.5C66,465.87,13.52,450.31,1.41,406.12,1,404.69.47,403.31,0,401.91Z"/><path d="M507.39,60.41a58.4,58.4,0,0,1-17.64,42.24q-72.13,72.4-144.53,144.54c-25.94,25.81-57.33,40.69-93.7,44.72-6.16.68-12.44,1.7-18.72.67-11.22-1.85-18.26-9.84-18.07-21.24.62-36.55,12.16-69.21,35.41-97.56,3.24-3.95,6.71-7.73,10.31-11.35Q332.68,90.12,405,17.89c24.68-24.61,63.27-23.68,87,1.84C501.88,30.36,507.38,44.93,507.39,60.41ZM447.9,40.71c-6.73.15-11.64,3.18-16,7.54q-72.3,72.54-144.62,145.06C273,207.68,263.88,225,258.85,244.61c-1.33,5.2-1.15,5.35,4.19,4a113.59,113.59,0,0,0,53.88-30.74q71-71,142-142.06a33.26,33.26,0,0,0,4.27-4.78c4.2-6.23,4.94-13,1.48-19.66A19,19,0,0,0,447.9,40.71Z"/><path d="M128.73,172.88c9.57,0,19.13-.06,28.7,0,11.5.08,20.37,7.75,21.1,18.09.85,12-6.08,20.55-18.16,22.4a31.3,31.3,0,0,1-4.43.4c-18.14,0-36.28.14-54.42,0-13.69-.12-22.54-8.24-22.63-20.29A20,20,0,0,1,98.55,172.9l1,0Z"/><path d="M131,293c-11.57,0-20.81.17-30,0-13.57-.32-22.15-8.57-22.07-20.85.07-10.8,8.33-19.76,19.24-19.91q30.66-.42,61.35,0a19.69,19.69,0,0,1,19.08,18.56c.52,11.17-6.11,19.92-16.8,21.55C150.78,294,139.69,292.56,131,293Z"/></g></g></svg>