<svg width="16" height="23" viewBox="0 0 16 23" fill="none" xmlns="http://www.w3.org/2000/svg">
<path d="M8 0C3.57714 0 0 3.5995 0 8.05C0 14.0875 8 23 8 23C8 23 16 14.0875 16 8.05C16 3.5995 12.4229 0 8 0ZM8 10.925C7.24224 10.925 6.51551 10.6221 5.9797 10.0829C5.44388 9.54377 5.14286 8.8125 5.14286 8.05C5.14286 7.2875 5.44388 6.55623 5.9797 6.01707C6.51551 5.4779 7.24224 5.175 8 5.175C8.75776 5.175 9.48449 5.4779 10.0203 6.01707C10.5561 6.55623 10.8571 7.2875 10.8571 8.05C10.8571 8.8125 10.5561 9.54377 10.0203 10.0829C9.48449 10.6221 8.75776 10.925 8 10.925Z" fill="#FF6584"/>
</svg>
