<svg width="24" height="25" viewBox="0 0 24 25" fill="none" xmlns="http://www.w3.org/2000/svg">
<g id="mingcute:location-line" clip-path="url(#clip0_388_41)">
<g id="Group">
<path id="Vector" fill-rule="evenodd" clip-rule="evenodd" d="M12 2.88232C14.3869 2.88232 16.6761 3.81194 18.364 5.46668C20.0518 7.12141 21 9.36571 21 11.7059C21 14.7196 19.324 17.1862 17.558 18.9559C16.6755 19.8303 15.7128 20.6231 14.682 21.3245L14.256 21.6088L14.056 21.7392L13.679 21.9745L13.343 22.1755L12.927 22.4127C12.6445 22.5704 12.325 22.6532 12 22.6532C11.675 22.6532 11.3555 22.5704 11.073 22.4127L10.657 22.1755L10.137 21.8617L9.945 21.7392L9.535 21.4715C8.42298 20.7336 7.38707 19.8911 6.442 18.9559C4.676 17.1843 3 14.7196 3 11.7059C3 9.36571 3.94821 7.12141 5.63604 5.46668C7.32387 3.81194 9.61305 2.88232 12 2.88232ZM12 4.84311C10.1435 4.84311 8.36301 5.56615 7.05025 6.85316C5.7375 8.14017 5 9.88574 5 11.7059C5 13.9823 6.272 15.9804 7.871 17.5843C8.55862 18.2665 9.30174 18.8928 10.093 19.4568L10.551 19.7764C10.699 19.8774 10.841 19.9715 10.978 20.0588L11.368 20.3039L11.711 20.5088L12 20.6745L12.455 20.4108L12.822 20.1853C13.017 20.0637 13.227 19.9274 13.449 19.7764L13.907 19.4568C14.6983 18.8928 15.4414 18.2665 16.129 17.5843C17.728 15.9813 19 13.9823 19 11.7059C19 9.88574 18.2625 8.14017 16.9497 6.85316C15.637 5.56615 13.8565 4.84311 12 4.84311ZM12 7.78429C13.0609 7.78429 14.0783 8.19745 14.8284 8.93289C15.5786 9.66832 16 10.6658 16 11.7059C16 12.7459 15.5786 13.7434 14.8284 14.4788C14.0783 15.2143 13.0609 15.6274 12 15.6274C10.9391 15.6274 9.92172 15.2143 9.17157 14.4788C8.42143 13.7434 8 12.7459 8 11.7059C8 10.6658 8.42143 9.66832 9.17157 8.93289C9.92172 8.19745 10.9391 7.78429 12 7.78429ZM12 9.74507C11.4696 9.74507 10.9609 9.95165 10.5858 10.3194C10.2107 10.6871 10 11.1858 10 11.7059C10 12.2259 10.2107 12.7246 10.5858 13.0923C10.9609 13.4601 11.4696 13.6666 12 13.6666C12.5304 13.6666 13.0391 13.4601 13.4142 13.0923C13.7893 12.7246 14 12.2259 14 11.7059C14 11.1858 13.7893 10.6871 13.4142 10.3194C13.0391 9.95165 12.5304 9.74507 12 9.74507Z" fill="#FF6464"/>
</g>
</g>
<defs>
<clipPath id="clip0_388_41">
<rect width="24" height="23.5294" fill="white" transform="translate(0 0.921631)"/>
</clipPath>
</defs>
</svg>
