<svg width="233" height="233" viewBox="0 0 233 233" fill="none" xmlns="http://www.w3.org/2000/svg">
<path d="M227.871 51.3918C224.586 47.9394 220.132 46 215.487 46C210.842 46 206.387 47.9394 203.103 51.3918L116.394 142.549L29.686 51.3918C26.3823 48.0373 21.9575 46.1811 17.3646 46.2231C12.7717 46.265 8.3783 48.2018 5.13054 51.6162C1.88278 55.0305 0.0405769 59.6494 0.000666627 64.4779C-0.0392436 69.3064 1.72635 73.9582 4.91718 77.4314L104.01 181.608C107.295 185.061 111.749 187 116.394 187C121.039 187 125.494 185.061 128.779 181.608L227.871 77.4314C231.155 73.978 233 69.2947 233 64.4116C233 59.5285 231.155 54.8452 227.871 51.3918Z" fill="#1E1E1E"/>
</svg>
