<svg id="Layer_1" data-name="Layer 1" xmlns="http://www.w3.org/2000/svg" viewBox="0 0 122.88 116.6"><polygon points="17.72 45.43 17.72 21.12 34.52 21.12 34.52 26.44 24.21 26.44 24.21 30.62 33.49 30.62 33.49 35.93 24.21 35.93 24.21 45.43 17.72 45.43"/><path d="M16.67,0h66.5A16.7,16.7,0,0,1,99.84,16.67V51.36A16.7,16.7,0,0,1,83.17,68H45.46L20.16,89.78a2.81,2.81,0,0,1-4.62-2.31L16.89,68h-.22A16.7,16.7,0,0,1,0,51.36V16.67A16.7,16.7,0,0,1,16.67,0Z"/><path d="M109.67,24.65a16.41,16.41,0,0,1,13.26,16v37.2A16.36,16.36,0,0,1,106.6,94.17H106L107.34,114h0a2.46,2.46,0,0,1-4,2L77.89,93.53H38.26L54.74,76.77H95.82a13.9,13.9,0,0,0,13.85-13.86V24.65Z"/><path d="M83.21,5.65H16.67a11.1,11.1,0,0,0-11,11V51.36a11.1,11.1,0,0,0,11,11h3.42a2.8,2.8,0,0,1,2.6,3h0L21.6,81.17l20.87-18a2.77,2.77,0,0,1,2-.81H83.16a11.1,11.1,0,0,0,11-11V16.67a11.1,11.1,0,0,0-11-11Z"/><polygon points="40.21 45.46 33.21 45.46 41 21.12 49.87 21.12 57.75 45.43 50.75 45.43 45.53 27.82 45.34 27.82 40.12 45.43 40.21 45.46"/><polygon points="38.9 35.87 52 35.87 52 40.81 38.81 40.81 38.81 35.84 38.9 35.87"/><polygon points="68.25 36.44 73.25 36.44 75 38.74 78.08 42.29 82.08 47.29 76.37 47.29 73.53 43.92 71.61 41.11 68.16 36.46 68.25 36.44"/><path d="M82.16,33.31a13.78,13.78,0,0,1-1.56,6.84,10.36,10.36,0,0,1-4.19,4.21,12.8,12.8,0,0,1-11.77,0,10.44,10.44,0,0,1-4.18-4.23,13.78,13.78,0,0,1-1.54-6.81,13.9,13.9,0,0,1,1.54-6.84,10.42,10.42,0,0,1,4.18-4.22,12.8,12.8,0,0,1,11.77,0,10.44,10.44,0,0,1,4.19,4.22,13.78,13.78,0,0,1,1.56,6.84Z"/><path d="M75.48,33.31a10.46,10.46,0,0,0-.57-3.68,4.82,4.82,0,0,0-1.66-2.29,5.16,5.16,0,0,0-5.43,0,4.9,4.9,0,0,0-1.67,2.29,10.68,10.68,0,0,0-.56,3.68A10.71,10.71,0,0,0,66.06,37a4.88,4.88,0,0,0,1.67,2.28,5.12,5.12,0,0,0,5.43,0A4.74,4.74,0,0,0,74.82,37a10.46,10.46,0,0,0,.57-3.68Z"/></svg>