<svg xmlns="http://www.w3.org/2000/svg" viewBox="0 0 439.09 71.6"><defs><style>.cls-1{fill:#fff;}</style></defs><g id="Layer_2" data-name="Layer 2"><g id="Layer_1-2" data-name="Layer 1"><path class="cls-1" d="M0,.7H14L29.3,50.4,44.4.7h14v70h-14v-27l-8.8,27H22.7L14,43.9V70.7H0ZM66.41.7h38.4v12H80.41v15C86.51,25.5,94,25,102,25.5V38.4c-7-.5-16-.2-21.6,3.1V58.7H105v12H66.41Zm87.68,0v12h-14.6v58h-14v-58H111V.7Zm20,37.4c9.2-1.7,14.1-4.1,14.1-17.3,0-2.6.4-6.8-2.4-7.1h-11.6Zm-14,32.6.1-70h26.4c10.2,0,14.6,5.4,14.6,13.1v7c-.5,12.6-4,19.6-8.7,23.6,5.2,6.4,8.3,14.9,8.6,26.2h-14c-.1-8.1-2.4-16.1-7.5-20.5l-5.7,1.2.2,19.4Zm69.22-59.9c-6.5,0-6.2,7.5-6.1,11V48.9c0,2.9,0,11.9,6.1,11.9h2c6.9,0,6.9-9,6.9-11.9v-27c.1-3.4.4-11.1-6.9-11.1Zm-20.1,39.1V21.7c0-9.8,3.9-21.7,18.7-21.7h5.6c14.8,0,18.7,11.9,18.7,21.7V49.9c0,9.8-3.9,21.7-18.7,21.7h-5.6C213.08,71.6,209.18,59.7,209.18,49.9Z"/><path class="cls-1" d="M280.26,10.8c-6.5,0-6.2,7.5-6.1,11V48.9c0,2.9,0,11.9,6.1,11.9h2c6.9,0,6.9-9,6.9-11.9V45.3a24.24,24.24,0,0,0-4.5,1l-4-10.4c6.1-3.1,18.4-2.8,22.5-.3V50.9c0,9.8-3.9,20.7-18.7,20.7h-5.6c-14.8,0-18.7-11.9-18.7-21.7V21.7c0-9.8,3.9-21.7,18.7-21.7h5.6C297.36,0,302,9,303,17.8v4.4h-13.8v-.9c.1-3.6,0-10.5-6.9-10.5ZM321.63.7h18.1l12.6,70h-14l-1.8-13.5a30.49,30.49,0,0,0-12.2,4.3L323,70.7H309Zm4.7,45.9a51.58,51.58,0,0,1,8.4-2.1l-4-29.6ZM394.52.7v12h-14.6v58h-14v-58h-14.5V.7Zm6,0h38.4v12h-24.4v15c6.1-2.2,13.6-2.7,21.6-2.2V38.4c-7-.5-16-.2-21.6,3.1V58.7h24.6v12h-38.6Z"/></g></g></svg>