<svg width="23" height="23" viewBox="0 0 23 23" fill="none" xmlns="http://www.w3.org/2000/svg">
<path d="M11.5 7.31818C9.18955 7.31818 7.31818 9.18955 7.31818 11.5C7.31818 13.8105 9.18955 15.6818 11.5 15.6818C13.8105 15.6818 15.6818 13.8105 15.6818 11.5C15.6818 9.18955 13.8105 7.31818 11.5 7.31818ZM20.8464 10.4545C20.6096 8.33449 19.6589 6.35797 18.1505 4.84954C16.642 3.34112 14.6655 2.39044 12.5455 2.15364V0H10.4545V2.15364C8.33449 2.39044 6.35797 3.34112 4.84954 4.84954C3.34112 6.35797 2.39044 8.33449 2.15364 10.4545H0V12.5455H2.15364C2.39044 14.6655 3.34112 16.642 4.84954 18.1505C6.35797 19.6589 8.33449 20.6096 10.4545 20.8464V23H12.5455V20.8464C14.6655 20.6096 16.642 19.6589 18.1505 18.1505C19.6589 16.642 20.6096 14.6655 20.8464 12.5455H23V10.4545H20.8464ZM11.5 18.8182C7.45409 18.8182 4.18182 15.5459 4.18182 11.5C4.18182 7.45409 7.45409 4.18182 11.5 4.18182C15.5459 4.18182 18.8182 7.45409 18.8182 11.5C18.8182 15.5459 15.5459 18.8182 11.5 18.8182Z" fill="white"/>
</svg>
