<svg width="72" height="76" viewBox="0 0 72 76" fill="none" xmlns="http://www.w3.org/2000/svg">
<path fill-rule="evenodd" clip-rule="evenodd" d="M32.8175 1.3761C33.6614 0.494982 34.8058 0 35.999 0C37.1923 0 38.3367 0.494982 39.1805 1.3761L70.6805 34.2761C71.3097 34.9334 71.7381 35.7708 71.9117 36.6824C72.0852 37.5939 71.9961 38.5388 71.6556 39.3975C71.3151 40.2562 70.7384 40.9901 69.9986 41.5066C69.2588 42.023 68.3889 42.2988 67.499 42.299H62.999V70.499C62.999 71.7455 62.5249 72.941 61.681 73.8224C60.8371 74.7038 59.6925 75.199 58.499 75.199H49.499C48.3056 75.199 47.161 74.7038 46.3171 73.8224C45.4731 72.941 44.999 71.7455 44.999 70.499V56.399C44.999 55.1525 44.5249 53.957 43.681 53.0756C42.8371 52.1942 41.6925 51.699 40.499 51.699H31.499C30.3056 51.699 29.161 52.1942 28.3171 53.0756C27.4731 53.957 26.999 55.1525 26.999 56.399V70.499C26.999 71.7455 26.5249 72.941 25.681 73.8224C24.8371 74.7038 23.6925 75.199 22.499 75.199H13.499C12.3056 75.199 11.161 74.7038 10.3171 73.8224C9.47315 72.941 8.99904 71.7455 8.99904 70.499V42.299H4.49904C3.60916 42.2988 2.73932 42.023 1.99948 41.5066C1.25963 40.9901 0.683006 40.2562 0.34249 39.3975C0.00197528 38.5388 -0.0871383 37.5939 0.0864157 36.6824C0.25997 35.7708 0.688399 34.9334 1.31754 34.2761L32.8175 1.3761Z" fill="black"/>
</svg>
