<svg width="392" height="392" viewBox="0 0 392 392" fill="none" xmlns="http://www.w3.org/2000/svg">
<path d="M176.417 293.916H215.583V176.416H176.417V293.916ZM196 0.166504C87.8022 0.166504 0.166748 87.8019 0.166748 196C0.166748 304.198 87.8022 391.833 196 391.833C304.198 391.833 391.833 304.198 391.833 196C391.833 87.8019 304.198 0.166504 196 0.166504ZM196 352.666C109.638 352.666 39.3334 282.362 39.3334 196C39.3334 109.637 109.638 39.3332 196 39.3332C282.363 39.3332 352.667 109.637 352.667 196C352.667 282.362 282.363 352.666 196 352.666ZM176.417 137.25H215.583V98.0832H176.417V137.25Z" fill="#FF6464"/>
</svg>
