<svg width="85" height="85" viewBox="0 0 85 85" fill="none" xmlns="http://www.w3.org/2000/svg">
<path d="M46.869 0.00522891C49.9703 -0.00667142 53.0715 0.024497 56.1718 0.0987244L56.9963 0.128473C57.9482 0.162471 58.8874 0.204969 60.0221 0.255966C64.5439 0.468455 67.6292 1.18242 70.3363 2.23212C73.1412 3.31156 75.5041 4.77348 77.867 7.13636C80.0274 9.25958 81.6995 11.8279 82.767 14.6627C83.8167 17.3698 84.5306 20.4594 84.7431 24.9812C84.7941 26.1116 84.8366 27.0551 84.8706 28.007L84.8961 28.8315C84.9716 31.9304 85.0042 35.0302 84.9939 38.13L84.9981 41.3004V46.8676C85.0086 49.9688 84.976 53.07 84.9003 56.1704L84.8749 56.9948C84.8409 57.9468 84.7984 58.886 84.7474 60.0206C84.5349 64.5424 83.8124 67.6278 82.767 70.3349C81.703 73.1727 80.0305 75.7431 77.867 77.8655C75.7419 80.0257 73.1723 81.6977 70.3363 82.7655C67.6292 83.8152 64.5439 84.5291 60.0221 84.7416C58.8874 84.7926 57.9482 84.8351 56.9963 84.8691L56.1718 84.8946C53.0715 84.9702 49.9703 85.0028 46.869 84.9924L43.6987 84.9966H38.1357C35.0345 85.0071 31.9333 84.9745 28.833 84.8989L28.0085 84.8734C26.9997 84.8368 25.991 84.7943 24.9827 84.7459C20.4609 84.5334 17.3756 83.8109 14.6642 82.7655C11.8283 81.7003 9.25949 80.0279 7.13784 77.8655C4.97489 75.7418 3.30124 73.1719 2.23359 70.3349C1.18389 67.6278 0.469928 64.5424 0.257439 60.0206C0.210109 59.0122 0.16761 58.0036 0.129945 56.9948L0.108697 56.1704C0.0303463 53.0701 -0.00507231 49.9688 0.00245213 46.8676V38.13C-0.00940887 35.0302 0.0217595 31.9304 0.0959477 28.8315L0.125696 28.007C0.159694 27.0551 0.202192 26.1116 0.253189 24.9812C0.465678 20.4552 1.17964 17.3741 2.22934 14.6627C3.29762 11.8265 4.97454 9.2589 7.14209 7.14061C9.26228 4.97642 11.8294 3.30124 14.6642 2.23212C17.3756 1.18242 20.4567 0.468455 24.9827 0.255966L28.0085 0.128473L28.833 0.107224C31.9318 0.0289129 35.0316 -0.00650578 38.1315 0.000979438L46.869 0.00522891ZM42.5003 21.2541C39.6848 21.2143 36.8895 21.7345 34.2768 22.7843C31.6642 23.8342 29.2862 25.3929 27.2811 27.3698C25.2761 29.3467 23.6839 31.7024 22.5972 34.3C21.5105 36.8975 20.9509 39.6852 20.9509 42.5009C20.9509 45.3167 21.5105 48.1043 22.5972 50.7019C23.6839 53.2995 25.2761 55.6551 27.2811 57.632C29.2862 59.6089 31.6642 61.1676 34.2768 62.2175C36.8895 63.2674 39.6848 63.7875 42.5003 63.7477C48.1358 63.7477 53.5406 61.509 57.5255 57.5241C61.5105 53.5391 63.7492 48.1344 63.7492 42.4988C63.7492 36.8632 61.5105 31.4585 57.5255 27.4736C53.5406 23.4886 48.1358 21.2541 42.5003 21.2541ZM42.5003 29.7537C44.1938 29.7225 45.8766 30.0291 47.4504 30.6555C49.0242 31.282 50.4573 32.2158 51.6661 33.4023C52.8749 34.5889 53.8352 36.0044 54.4908 37.5663C55.1464 39.1281 55.4842 40.8049 55.4845 42.4988C55.4848 44.1926 55.1475 45.8695 54.4924 47.4316C53.8374 48.9937 52.8776 50.4095 51.6691 51.5965C50.4607 52.7834 49.0279 53.7177 47.4543 54.3447C45.8808 54.9716 44.1981 55.2788 42.5045 55.2481C39.1232 55.2481 35.8803 53.9049 33.4894 51.514C31.0984 49.123 29.7552 45.8801 29.7552 42.4988C29.7552 39.1175 31.0984 35.8746 33.4894 33.4836C35.8803 31.0927 39.1232 29.7495 42.5045 29.7495L42.5003 29.7537ZM64.8116 14.8795C63.4406 14.9343 62.144 15.5176 61.1934 16.507C60.2428 17.4964 59.7118 18.8153 59.7118 20.1874C59.7118 21.5596 60.2428 22.8784 61.1934 23.8679C62.144 24.8573 63.4406 25.4405 64.8116 25.4954C66.2205 25.4954 67.5717 24.9357 68.5679 23.9395C69.5642 22.9433 70.1239 21.5921 70.1239 20.1832C70.1239 18.7743 69.5642 17.4231 68.5679 16.4269C67.5717 15.4306 66.2205 14.871 64.8116 14.871V14.8795Z" fill="white"/>
</svg>
