<svg width="40" height="40" viewBox="0 0 40 40" fill="none" xmlns="http://www.w3.org/2000/svg">
<path d="M37.1344 27.8656C37.2506 27.9817 37.3428 28.1196 37.4057 28.2713C37.4686 28.4231 37.501 28.5857 37.501 28.75C37.501 28.9143 37.4686 29.0769 37.4057 29.2287C37.3428 29.3804 37.2506 29.5183 37.1344 29.6344L33.3844 33.3844C33.2096 33.5594 32.9867 33.6786 32.7441 33.7269C32.5015 33.7752 32.25 33.7505 32.0215 33.6558C31.793 33.5611 31.5977 33.4007 31.4604 33.195C31.323 32.9892 31.2498 32.7474 31.25 32.5V30C29.4847 29.9752 27.7498 29.5361 26.1852 28.7182C24.6206 27.9002 23.27 26.7261 22.2422 25.2906L15.7234 16.1656C14.9131 15.0329 13.8446 14.1096 12.6064 13.4721C11.3681 12.8347 9.99582 12.5014 8.60313 12.5H5C4.66848 12.5 4.35054 12.3683 4.11612 12.1339C3.8817 11.8995 3.75 11.5815 3.75 11.25C3.75 10.9185 3.8817 10.6005 4.11612 10.3661C4.35054 10.1317 4.66848 10 5 10H8.60313C10.3936 10.0015 12.1579 10.4296 13.7499 11.2488C15.342 12.0681 16.7159 13.2549 17.7578 14.7109L24.2766 23.8359C25.0723 24.9486 26.1174 25.8595 27.3283 26.4958C28.5392 27.132 29.8823 27.476 31.25 27.5V25C31.2498 24.7526 31.323 24.5108 31.4604 24.305C31.5977 24.0993 31.793 23.9389 32.0215 23.8442C32.25 23.7495 32.5015 23.7248 32.7441 23.7731C32.9867 23.8214 33.2096 23.9406 33.3844 24.1156L37.1344 27.8656ZM22.3438 16.7188C22.4773 16.8142 22.6284 16.8823 22.7883 16.9194C22.9482 16.9564 23.1139 16.9616 23.2758 16.9346C23.4377 16.9076 23.5928 16.849 23.732 16.7621C23.8713 16.6752 23.9921 16.5617 24.0875 16.4281L24.275 16.1672C25.0705 15.0537 26.1158 14.1421 27.327 13.5053C28.5382 12.8685 29.8818 12.5242 31.25 12.5V15C31.2498 15.2474 31.323 15.4892 31.4604 15.695C31.5977 15.9007 31.793 16.0611 32.0215 16.1558C32.25 16.2505 32.5015 16.2752 32.7441 16.2269C32.9867 16.1786 33.2096 16.0594 33.3844 15.8844L37.1344 12.1344C37.2506 12.0183 37.3428 11.8804 37.4057 11.7287C37.4686 11.5769 37.501 11.4143 37.501 11.25C37.501 11.0857 37.4686 10.9231 37.4057 10.7713C37.3428 10.6196 37.2506 10.4817 37.1344 10.3656L33.3844 6.61563C33.2096 6.44062 32.9867 6.32141 32.7441 6.2731C32.5015 6.22478 32.25 6.24954 32.0215 6.34423C31.793 6.43892 31.5977 6.59929 31.4604 6.80503C31.323 7.01077 31.2498 7.25264 31.25 7.50001V10C29.4847 10.0248 27.7498 10.4639 26.1852 11.2819C24.6206 12.0999 23.27 13.2739 22.2422 14.7094L22.0547 14.9703C21.9585 15.104 21.8896 15.2553 21.852 15.4156C21.8145 15.576 21.809 15.7421 21.8358 15.9046C21.8627 16.0671 21.9214 16.2227 22.0086 16.3624C22.0957 16.5021 22.2096 16.6232 22.3438 16.7188ZM17.6563 23.2813C17.5227 23.1858 17.3716 23.1177 17.2117 23.0806C17.0518 23.0436 16.8861 23.0384 16.7242 23.0654C16.5623 23.0924 16.4072 23.151 16.268 23.2379C16.1287 23.3248 16.0079 23.4383 15.9125 23.5719L15.725 23.8328C14.9147 24.966 13.846 25.8898 12.6075 26.5275C11.3689 27.1653 9.99622 27.4987 8.60313 27.5H5C4.66848 27.5 4.35054 27.6317 4.11612 27.8661C3.8817 28.1005 3.75 28.4185 3.75 28.75C3.75 29.0815 3.8817 29.3995 4.11612 29.6339C4.35054 29.8683 4.66848 30 5 30H8.60313C10.3936 29.9985 12.1579 29.5704 13.7499 28.7512C15.342 27.9319 16.7159 26.7451 17.7578 25.2891L17.9453 25.0281C18.0413 24.8945 18.11 24.7433 18.1474 24.5831C18.1848 24.423 18.1903 24.257 18.1634 24.0947C18.1365 23.9324 18.0779 23.777 17.9909 23.6374C17.9039 23.4978 17.7901 23.3768 17.6563 23.2813Z" fill="black"/>
</svg>
