<svg width="50" height="50" viewBox="0 0 50 50" fill="none" xmlns="http://www.w3.org/2000/svg">
<circle cx="25" cy="25" r="25" fill="#EFFFFD"/>
<path d="M24.0208 30.1505C24.1666 30.2959 24.2824 30.4686 24.3613 30.6588C24.4403 30.849 24.481 31.0529 24.481 31.2589C24.481 31.4648 24.4403 31.6687 24.3613 31.8589C24.2824 32.0491 24.1666 32.2218 24.0208 32.3672L19.8482 36.5398C19.7029 36.6857 19.5301 36.8014 19.34 36.8804C19.1498 36.9593 18.9459 37 18.7399 37C18.534 37 18.3301 36.9593 18.1399 36.8804C17.9497 36.8014 17.777 36.6857 17.6316 36.5398L13.4591 32.3672C13.3135 32.2217 13.1981 32.0489 13.1193 31.8587C13.0405 31.6685 13 31.4647 13 31.2589C13 31.053 13.0405 30.8492 13.1193 30.659C13.1981 30.4689 13.3135 30.2961 13.4591 30.1505C13.6046 30.005 13.7774 29.8895 13.9676 29.8107C14.1578 29.732 14.3616 29.6914 14.5674 29.6914C14.7732 29.6914 14.9771 29.732 15.1672 29.8107C15.3574 29.8895 15.5302 30.005 15.6757 30.1505L17.1765 31.6487V14.5673C17.1765 14.1523 17.3414 13.7543 17.6348 13.4608C17.9283 13.1674 18.3262 13.0025 18.7412 13.0025C19.1562 13.0025 19.5542 13.1674 19.8476 13.4608C20.1411 13.7543 20.3059 14.1523 20.3059 14.5673V31.6487L21.8067 30.1466C21.9523 30.0014 22.1251 29.8863 22.3152 29.8079C22.5052 29.7295 22.7089 29.6893 22.9146 29.6897C23.1202 29.69 23.3237 29.7309 23.5135 29.81C23.7033 29.8891 23.8757 30.0048 24.0208 30.1505ZM36.5383 17.6328L32.3658 13.4602C32.2204 13.3143 32.0477 13.1986 31.8575 13.1196C31.6673 13.0407 31.4634 13 31.2575 13C31.0515 13 30.8476 13.0407 30.6574 13.1196C30.4672 13.1986 30.2945 13.3143 30.1491 13.4602L25.9766 17.6328C25.6827 17.9267 25.5175 18.3254 25.5175 18.7411C25.5175 19.1568 25.6827 19.5555 25.9766 19.8495C26.2706 20.1434 26.6693 20.3086 27.085 20.3086C27.5007 20.3086 27.8993 20.1434 28.1933 19.8495L29.6941 18.3487V35.4301C29.6941 35.8451 29.8589 36.2431 30.1524 36.5366C30.4458 36.83 30.8438 36.9949 31.2588 36.9949C31.6738 36.9949 32.0717 36.83 32.3652 36.5366C32.6586 36.2431 32.8235 35.8451 32.8235 35.4301V18.3487L34.3243 19.8508C34.6182 20.1447 35.0169 20.3099 35.4326 20.3099C35.8483 20.3099 36.247 20.1447 36.5409 19.8508C36.8349 19.5568 37 19.1581 37 18.7424C37 18.3267 36.8349 17.928 36.5409 17.6341L36.5383 17.6328Z" fill="#FF6584"/>
</svg>
