<svg width="270" height="271" viewBox="0 0 270 271" fill="none" xmlns="http://www.w3.org/2000/svg">
<path d="M0.361719 93.1216C0.0358852 98.9441 3.29422 104.37 8.59255 106.807L114.899 155.568L163.661 261.861C165.984 266.904 171.028 270.12 176.538 270.12L177.346 270.092C180.189 269.932 182.918 268.92 185.178 267.186C187.437 265.453 189.121 263.078 190.011 260.373L269.273 19.0866C270.931 14.0149 269.599 8.41909 265.831 4.63659C262.063 0.854093 256.481 -0.435074 251.381 1.19409L10.0801 80.4708C7.37395 81.3545 4.99804 83.0353 3.26383 85.2928C1.52961 87.5503 0.518033 90.2792 0.361719 93.1216Z" fill="white"/>
</svg>
