<svg width="171" height="140" viewBox="0 0 171 140" fill="none" xmlns="http://www.w3.org/2000/svg">
<path d="M46.234 0H124.292C124.847 3.8439 126.22 7.5239 128.32 10.7911C130.419 14.0584 133.196 16.8366 136.462 18.9381C139.728 21.0395 143.407 22.4151 147.251 22.9718C151.094 23.5285 155.013 23.2534 158.741 22.165C158.051 28.8398 154.911 35.0218 149.928 39.5164C144.945 44.011 138.473 46.4992 131.763 46.5H38.763C32.0526 46.4992 25.5808 44.011 20.598 39.5164C15.6153 35.0218 12.4755 28.8398 11.7853 22.165C15.5133 23.2534 19.4317 23.5285 23.2752 22.9718C27.1188 22.4151 30.798 21.0395 34.0641 18.9381C37.3301 16.8366 40.1068 14.0584 42.2064 10.7911C44.306 7.5239 45.6795 3.8439 46.234 0ZM170.35 62.8603C165.014 65.8862 158.698 66.6799 152.78 65.0685C146.861 63.457 141.819 59.5711 138.754 54.2578H31.7725C28.7069 59.5731 23.6638 63.4606 17.7431 65.0722C11.8224 66.6837 5.50472 65.8886 0.168019 62.8603C-0.459831 68.4753 0.681414 74.1463 3.43241 79.0815C6.18341 84.0166 10.4068 87.9695 15.513 90.3883V139.5H62.013V124C62.013 117.834 64.4626 111.92 68.8228 107.56C73.183 103.2 79.0967 100.75 85.263 100.75C91.4293 100.75 97.343 103.2 101.703 107.56C106.063 111.92 108.513 117.834 108.513 124V139.5H155.013V90.396C160.119 87.9756 164.342 84.021 167.092 79.0844C169.841 74.1478 170.98 68.4757 170.35 62.8603Z" fill="black"/>
</svg>
