<svg xmlns="http://www.w3.org/2000/svg" viewBox="0 0 371.57 300.29"><defs><style>.cls-1{fill:#010202;}</style></defs><g id="Layer_2" data-name="Layer 2"><g id="katman_1" data-name="katman 1"><path class="cls-1" d="M355.57,213.05H315.89a71.24,71.24,0,1,0,0,32h39.68a16,16,0,0,0,0-32Z"/><path class="cls-1" d="M132.43,213.05H16a16,16,0,0,0,0,32H132.43a16,16,0,0,0,0-32Z"/><path class="cls-1" d="M16,87.23H55.69a71.23,71.23,0,1,0,0-32H16a16,16,0,0,0,0,32Z"/><path class="cls-1" d="M239.15,87.23H355.57a16,16,0,0,0,0-32H239.15a16,16,0,1,0,0,32Z"/></g></g></svg>