<svg width="440" height="72" viewBox="0 0 440 72" fill="none" xmlns="http://www.w3.org/2000/svg">
<path d="M0.464844 0.999995H14.4648L29.7648 50.7L44.8648 0.999995H58.8648V71H44.8648V44L36.0648 71H23.1648L14.4648 44.2V71H0.464844V0.999995ZM66.8711 0.999995H105.271V13H80.8711V28C86.9711 25.8 94.4711 25.3 102.471 25.8V38.7C95.4711 38.2 86.4711 38.5 80.8711 41.8V59H105.471V71H66.8711V0.999995ZM154.553 0.999995V13H139.953V71H125.953V13H111.453V0.999995H154.553ZM174.523 38.4C183.723 36.7 188.623 34.3 188.623 21.1C188.623 18.5 189.023 14.3 186.223 14H174.623L174.523 38.4ZM160.523 71L160.623 0.999995H187.023C197.223 0.999995 201.623 6.4 201.623 14.1V21.1C201.123 33.7 197.623 40.7 192.923 44.7C198.123 51.1 201.223 59.6 201.523 70.9H187.523C187.423 62.8 185.123 54.8 180.023 50.4L174.323 51.6L174.523 71H160.523ZM229.745 11.1C223.245 11.1 223.545 18.6 223.645 22.1V23V49.2C223.645 52.1 223.645 61.1 229.745 61.1H231.745C238.645 61.1 238.645 52.1 238.645 49.2V23V22.2C238.745 18.8 239.045 11.1 231.745 11.1H229.745ZM209.645 50.2V22C209.645 12.2 213.545 0.299998 228.345 0.299998H233.945C248.745 0.299998 252.645 12.2 252.645 22V50.2C252.645 60 248.745 71.9 233.945 71.9H228.345C213.545 71.9 209.645 60 209.645 50.2Z" fill="#4A4A4D"/>
<path d="M280.721 11.1C274.221 11.1 274.521 18.6 274.621 22.1V23V49.2C274.621 52.1 274.621 61.1 280.721 61.1H282.721C289.621 61.1 289.621 52.1 289.621 49.2V45.6C288.121 45.8 286.621 46.1 285.121 46.6L281.121 36.2C287.221 33.1 299.521 33.4 303.621 35.9V51.2C303.621 61 299.721 71.9 284.921 71.9H279.321C264.521 71.9 260.621 60 260.621 50.2V22C260.621 12.2 264.521 0.299998 279.321 0.299998H284.921C297.821 0.299998 302.421 9.3 303.421 18.1V22.5H289.621V21.6C289.721 18 289.621 11.1 282.721 11.1H280.721ZM322.098 0.999995H340.198L352.798 71H338.798L336.998 57.5C332.398 58.2 328.098 59.6 324.798 61.8L323.498 71H309.498L322.098 0.999995ZM326.798 46.9C329.398 46 332.198 45.3 335.198 44.8L331.198 15.2L326.798 46.9ZM394.983 0.999995V13H380.383V71H366.383V13H351.883V0.999995H394.983ZM400.953 0.999995H439.353V13H414.953V28C421.053 25.8 428.553 25.3 436.553 25.8V38.7C429.553 38.2 420.553 38.5 414.953 41.8V59H439.553V71H400.953V0.999995Z" fill="#F82E56"/>
</svg>
