<svg width="332" height="332" viewBox="0 0 332 332" fill="none" xmlns="http://www.w3.org/2000/svg">
<path d="M194.867 269.136C194.867 277.941 191.37 286.385 185.143 292.612C178.917 298.838 170.473 302.336 161.667 302.336C152.862 302.336 144.418 298.838 138.191 292.612C131.965 286.385 128.467 277.941 128.467 269.136C128.467 260.33 131.965 251.886 138.191 245.66C144.418 239.433 152.862 235.936 161.667 235.936C170.473 235.936 178.917 239.433 185.143 245.66C191.37 251.886 194.867 260.33 194.867 269.136Z" fill="#FF6464"/>
<path fill-rule="evenodd" clip-rule="evenodd" d="M161.186 79.099C150.064 79.099 140.519 82.419 133.796 87.1666C127.322 91.7482 124.118 97.0768 123.189 101.675C121.815 107.821 118.087 113.185 112.805 116.614C107.522 120.043 101.106 121.266 94.9328 120.019C88.7595 118.772 83.3207 115.155 79.7834 109.945C76.246 104.734 74.8918 98.3443 76.0114 92.1466C79.7796 73.455 91.3664 58.1996 106.041 47.8246C121.313 37.0346 140.668 30.959 161.186 30.959C203.632 30.959 247.639 59.345 247.639 104.929C247.639 131.323 231.952 152.67 211.633 165.12C206.187 168.453 199.64 169.486 193.433 167.992C187.225 166.497 181.866 162.598 178.533 157.152C175.2 151.706 174.167 145.159 175.662 138.952C177.156 132.744 181.055 127.385 186.501 124.052C195.963 118.258 199.499 110.871 199.499 104.929C199.499 95.4002 187.63 79.099 161.186 79.099Z" fill="#FF6464"/>
<path fill-rule="evenodd" clip-rule="evenodd" d="M161.186 143.258C174.466 143.258 185.256 154.015 185.256 167.328V192.261C185.256 198.645 182.72 204.767 178.206 209.281C173.692 213.795 167.57 216.331 161.186 216.331C154.802 216.331 148.68 213.795 144.166 209.281C139.652 204.767 137.116 198.645 137.116 192.261V167.328C137.116 154.048 147.889 143.258 161.186 143.258Z" fill="#FF6464"/>
<path fill-rule="evenodd" clip-rule="evenodd" d="M219.767 132.236C221.393 134.949 222.469 137.957 222.931 141.086C223.394 144.215 223.236 147.405 222.465 150.473C221.694 153.541 220.326 156.427 218.439 158.966C216.552 161.505 214.183 163.647 211.467 165.27L173.553 187.962C168.076 191.242 161.521 192.212 155.329 190.658C149.137 189.105 143.816 185.155 140.536 179.679C137.256 174.202 136.286 167.646 137.839 161.454C139.393 155.262 143.342 149.941 148.819 146.661L186.75 123.952C189.463 122.329 192.469 121.256 195.597 120.794C198.724 120.333 201.912 120.492 204.978 121.263C208.044 122.034 210.928 123.401 213.466 125.286C216.003 127.172 218.145 129.522 219.767 132.236Z" fill="#FF6464"/>
</svg>
