<svg width="16" height="17" viewBox="0 0 16 17" fill="none" xmlns="http://www.w3.org/2000/svg">
<path fill-rule="evenodd" clip-rule="evenodd" d="M2.46516 6.41186C2.46516 5.90665 2.56083 5.40638 2.74671 4.93963C2.93259 4.47288 3.20503 4.04877 3.54849 3.69154C3.89195 3.3343 4.29969 3.05092 4.74844 2.85759C5.19719 2.66425 5.67816 2.56474 6.16388 2.56474C6.6496 2.56474 7.13057 2.66425 7.57932 2.85759C8.02807 3.05092 8.43581 3.3343 8.77927 3.69154C9.12273 4.04877 9.39517 4.47288 9.58105 4.93963C9.76693 5.40638 9.8626 5.90665 9.8626 6.41186C9.8626 7.43217 9.47291 8.4107 8.77927 9.13218C8.08562 9.85365 7.14484 10.259 6.16388 10.259C5.18292 10.259 4.24213 9.85365 3.54849 9.13218C2.85485 8.4107 2.46516 7.43217 2.46516 6.41186ZM6.16388 1.55975e-08C5.20262 0.000105512 4.25471 0.234026 3.39586 0.683076C2.53701 1.13213 1.79102 1.78386 1.21749 2.58622C0.643952 3.38858 0.258765 4.31933 0.0926948 5.30412C-0.0733757 6.28891 -0.0157278 7.30045 0.261034 8.25793C0.537795 9.21542 1.026 10.0923 1.68665 10.8186C2.3473 11.5449 3.16209 12.1004 4.06593 12.4407C4.96977 12.7811 5.93762 12.8969 6.89215 12.7789C7.84669 12.6609 8.76147 12.3123 9.56341 11.7611L13.5112 15.8681C13.7425 16.1086 14.0562 16.2438 14.3833 16.2438C14.7103 16.2438 15.024 16.1086 15.2553 15.8681C15.4866 15.6275 15.6166 15.3012 15.6166 14.961C15.6166 14.6208 15.4866 14.2945 15.2553 14.0539L11.3067 9.94778C11.921 8.98139 12.272 7.85997 12.3225 6.70269C12.373 5.54541 12.1211 4.39552 11.5937 3.37521C11.0662 2.3549 10.2828 1.50229 9.32672 0.907995C8.37066 0.313699 7.27766 -8.07758e-05 6.16388 1.55975e-08Z" fill="white"/>
</svg>
