<svg width="42" height="42" viewBox="0 0 42 42" fill="none" xmlns="http://www.w3.org/2000/svg">
<mask id="mask0_152_538" style="mask-type:alpha" maskUnits="userSpaceOnUse" x="0" y="0" width="42" height="42">
<path d="M30.8636 0H10.2614C8.7002 0 7.20298 0.632141 6.09908 1.75736C4.99517 2.88258 4.375 4.4087 4.375 6V30C4.375 31.5913 4.99517 33.1174 6.09908 34.2426C7.20298 35.3679 8.7002 36 10.2614 36H11.733L9.08409 39.6C8.96814 39.7576 8.88377 39.9369 8.83581 40.1277C8.78785 40.3185 8.77723 40.5171 8.80456 40.7121C8.83189 40.9071 8.89664 41.0947 8.9951 41.2642C9.09356 41.4337 9.22381 41.5818 9.37841 41.7C9.53301 41.8182 9.70894 41.9042 9.89614 41.9531C10.0833 42.002 10.2782 42.0128 10.4695 41.9849C10.6608 41.9571 10.8448 41.8911 11.0111 41.7907C11.1774 41.6903 11.3227 41.5576 11.4386 41.4L15.4119 36H25.7131L29.6864 41.4C29.9205 41.7183 30.2692 41.9287 30.6555 41.9849C31.0419 42.0412 31.4344 41.9387 31.7466 41.7C32.0588 41.4613 32.2652 41.106 32.3204 40.7121C32.3756 40.3183 32.2751 39.9183 32.0409 39.6L29.392 36H30.8636C32.4248 36 33.922 35.3679 35.0259 34.2426C36.1298 33.1174 36.75 31.5913 36.75 30V6C36.75 4.4087 36.1298 2.88258 35.0259 1.75736C33.922 0.632141 32.4248 0 30.8636 0ZM7.31818 18V10.5H19.0909V18H7.31818ZM22.0341 10.5H33.8068V18H22.0341V10.5ZM10.2614 3H30.8636C31.6442 3 32.3928 3.31607 32.9448 3.87868C33.4967 4.44129 33.8068 5.20435 33.8068 6V7.5H7.31818V6C7.31818 5.20435 7.62827 4.44129 8.18022 3.87868C8.73217 3.31607 9.48078 3 10.2614 3ZM30.8636 33H10.2614C9.48078 33 8.73217 32.6839 8.18022 32.1213C7.62827 31.5587 7.31818 30.7956 7.31818 30V21H33.8068V30C33.8068 30.7956 33.4967 31.5587 32.9448 32.1213C32.3928 32.6839 31.6442 33 30.8636 33ZM14.6761 27.75C14.6761 28.195 14.5467 28.63 14.3041 29C14.0616 29.37 13.7168 29.6584 13.3135 29.8287C12.9101 29.999 12.4663 30.0436 12.0381 29.9568C11.6099 29.8699 11.2166 29.6557 10.9079 29.341C10.5992 29.0263 10.389 28.6254 10.3038 28.1889C10.2186 27.7525 10.2623 27.3001 10.4294 26.889C10.5965 26.4778 10.8794 26.1264 11.2424 25.8792C11.6054 25.632 12.0322 25.5 12.4687 25.5C13.0542 25.5 13.6156 25.737 14.0296 26.159C14.4436 26.581 14.6761 27.1533 14.6761 27.75ZM30.8636 27.75C30.8636 28.195 30.7342 28.63 30.4916 29C30.2491 29.37 29.9043 29.6584 29.501 29.8287C29.0976 29.999 28.6538 30.0436 28.2256 29.9568C27.7974 29.8699 27.4041 29.6557 27.0954 29.341C26.7867 29.0263 26.5764 28.6254 26.4913 28.1889C26.4061 27.7525 26.4498 27.3001 26.6169 26.889C26.784 26.4778 27.0669 26.1264 27.4299 25.8792C27.7929 25.632 28.2197 25.5 28.6562 25.5C29.2417 25.5 29.8031 25.737 30.2171 26.159C30.6311 26.581 30.8636 27.1533 30.8636 27.75Z" fill="black"/>
</mask>
<g mask="url(#mask0_152_538)">
<rect x="-4.375" y="-7" width="49.875" height="56" fill="#FF6584"/>
</g>
</svg>
