<svg width="85" height="85" viewBox="0 0 85 85" fill="none" xmlns="http://www.w3.org/2000/svg">
<path d="M84.9333 16.1977C81.7536 17.6044 78.3818 18.5284 74.9292 18.9394C78.5669 16.7608 81.2887 13.3341 82.5875 9.29771C79.1708 11.331 75.425 12.756 71.525 13.5269C68.9025 10.721 65.4265 8.86006 61.6373 8.23348C57.8481 7.6069 53.9581 8.24975 50.5719 10.0621C47.1858 11.8744 44.4933 14.7547 42.913 18.2552C41.3327 21.7556 40.9531 25.6801 41.8333 29.4185C34.9039 29.0718 28.1249 27.2716 21.9364 24.1346C15.748 20.9977 10.2885 16.5942 5.9125 11.2102C4.36371 13.8704 3.54981 16.8945 3.55417 19.9727C3.55417 26.0144 6.63333 31.3519 11.3042 34.4769C8.53756 34.3896 5.83186 33.6425 3.4125 32.2977V32.5102C3.41237 36.5347 4.80431 40.4353 7.35221 43.5505C9.90012 46.6657 13.4471 48.8037 17.3917 49.6019C14.8235 50.2986 12.1304 50.4012 9.51667 49.9019C10.6288 53.366 12.7967 56.3955 15.7167 58.566C18.6366 60.7366 22.1623 61.9394 25.8 62.006C22.1848 64.8454 18.0454 66.9443 13.6184 68.1826C9.19138 69.4209 4.5637 69.7743 0 69.2227C7.96551 74.3451 17.2379 77.0646 26.7083 77.056C58.7667 77.056 76.2917 50.5019 76.2917 27.4727C76.2917 26.7227 76.275 25.9644 76.2417 25.2185C79.6517 22.7534 82.5949 19.6959 84.9333 16.1977Z" fill="white"/>
</svg>
